<?xml version="1.0" standalone="no"?>
<!DOCTYPE svg PUBLIC "-//W3C//DTD SVG 20010904//EN"
 "http://www.w3.org/TR/2001/REC-SVG-20010904/DTD/svg10.dtd">
<svg version="1.0" xmlns="../../external.html?link=http://www.w3.org/2000/svg"
 width="300.000000pt" height="300.000000pt" viewBox="0 0 300.000000 300.000000"
 preserveAspectRatio="xMidYMid meet">
<metadata>
Created by potrace 1.11, written by Peter Selinger 2001-2013
</metadata>
<g transform="translate(0.000000,300.000000) scale(0.100000,-0.100000)"
fill="#000000" stroke="none">
<path d="M185 2982 c-73 -25 -121 -66 -152 -130 l-28 -57 0 -1300 0 -1300 23
-42 c31 -58 74 -100 130 -126 l47 -22 1274 -3 c1396 -3 1332 -5 1417 56 21 16
53 53 69 83 l30 54 0 1305 c0 1255 -1 1306 -19 1340 -34 64 -63 95 -117 125
l-54 30 -1285 2 c-1199 2 -1288 1 -1335 -15z m2095 -162 c18 -18 19 -28 14
-89 -8 -82 -4 -85 97 -94 36 -3 91 -16 123 -28 49 -18 64 -20 95 -10 49 14
101 -1 148 -42 40 -35 67 -90 84 -175 10 -49 10 -65 -5 -109 -32 -97 -71 -127
-187 -143 -52 -7 -102 -7 -174 1 -89 10 -105 9 -133 -5 -55 -28 -57 -39 -57
-297 0 -242 -4 -269 -41 -269 -35 0 -44 42 -48 235 -8 297 -17 319 -141 349
-72 18 -85 18 -169 5 -186 -29 -260 -11 -294 70 -52 121 -31 259 45 300 12 6
29 11 38 11 9 0 35 13 58 29 43 31 53 32 303 57 28 3 65 14 82 24 31 19 32 22
32 88 0 87 16 112 71 112 26 0 46 -7 59 -20z m-1860 -10 c30 -16 41 -71 25
-132 -16 -57 -7 -123 21 -166 36 -55 127 -64 206 -20 54 31 68 68 68 186 0 83
3 104 19 123 16 21 22 22 45 11 36 -16 46 -48 46 -150 1 -165 63 -228 174
-176 50 24 59 53 60 180 1 115 10 144 46 144 9 0 25 -9 36 -21 15 -17 20 -42
24 -137 8 -166 9 -166 148 -176 81 -5 102 -16 102 -51 0 -36 -41 -61 -111 -68
-102 -11 -122 -28 -149 -123 -9 -30 -9 -51 -1 -80 19 -68 14 -147 -12 -185
-52 -79 -224 -115 -317 -67 -73 37 -94 87 -97 223 -3 127 -19 181 -66 221 -29
24 -37 26 -89 20 -87 -9 -135 -37 -159 -94 -13 -29 -18 -56 -14 -72 3 -14 10
-97 14 -185 9 -180 22 -222 83 -262 76 -50 97 -53 455 -53 211 0 341 -4 354
-10 11 -6 19 -21 19 -36 0 -20 -9 -29 -47 -47 -47 -21 -59 -22 -398 -22 l-350
0 -56 26 c-128 60 -164 186 -140 482 14 162 10 181 -49 231 -25 21 -42 26 -82
26 -79 0 -110 40 -70 90 11 14 33 23 62 27 67 9 99 29 121 76 22 50 23 70 4
122 -37 104 4 183 75 145z m419 -1327 c20 -17 27 -40 30 -104 2 -42 38 -51
219 -57 190 -5 194 -7 241 -105 55 -113 76 -231 45 -261 -36 -37 -63 -9 -88
94 -22 85 -44 120 -92 147 -38 21 -50 22 -399 24 -345 2 -362 1 -400 -18 -22
-12 -47 -29 -57 -39 -18 -21 -48 -126 -48 -168 0 -15 -11 -38 -25 -52 -21 -21
-28 -23 -45 -14 -31 17 -37 45 -28 118 14 101 46 171 98 211 42 31 49 33 102
28 39 -3 65 0 85 10 15 8 68 21 117 29 49 7 94 18 99 23 5 5 13 33 18 62 5 28
16 60 25 70 22 24 75 25 103 2z m1166 -3 c17 0 58 2 92 6 58 5 62 4 78 -20 14
-21 15 -29 5 -41 -19 -22 -77 -29 -135 -15 -45 11 -59 11 -92 -2 -67 -27 -49
-43 52 -45 109 -4 131 -8 139 -29 11 -29 -13 -44 -69 -44 -61 0 -85 -7 -85
-25 0 -9 25 -14 80 -17 59 -3 85 -9 101 -23 19 -18 19 -20 3 -32 -11 -8 -47
-13 -91 -13 -57 0 -73 -3 -73 -15 0 -21 30 -34 96 -41 99 -11 133 -48 73 -80
-30 -15 -34 -15 -125 20 -110 42 -139 44 -202 12 -26 -13 -66 -30 -90 -37 -48
-14 -55 -42 -12 -47 14 -2 31 -9 38 -14 9 -8 23 -6 51 6 31 15 62 17 180 14
137 -3 144 -4 162 -27 20 -24 20 -25 -1 -45 -18 -19 -35 -21 -157 -25 -92 -2
-149 1 -175 10 -29 9 -41 10 -50 1 -7 -7 -43 -12 -85 -12 -110 0 -108 -6 -99
293 5 159 12 247 19 256 28 34 69 41 207 36 74 -2 149 -4 165 -5z m696 -18
c26 -23 31 -33 25 -55 -3 -16 -19 -33 -37 -42 -46 -24 -31 -40 39 -40 78 0
103 -19 74 -55 -15 -19 -31 -24 -78 -28 -111 -8 -178 45 -141 110 9 16 15 34
11 39 -7 12 -161 11 -185 -1 -10 -6 -32 -40 -48 -75 -32 -71 -65 -94 -102 -75
-26 14 -24 35 6 74 30 40 32 67 5 91 -27 24 -25 39 6 64 25 20 40 21 210 21
l184 0 31 -28z m-116 -252 c141 1 191 -58 103 -120 -89 -61 -84 -56 -69 -74
10 -12 31 -16 85 -16 106 0 153 -34 110 -81 -22 -25 -41 -24 -160 6 -115 29
-126 30 -221 10 -105 -22 -169 -23 -190 -3 -26 26 -2 45 82 63 80 18 105 35
86 59 -7 8 -41 33 -77 56 -68 45 -69 47 -54 70 17 27 72 40 150 35 41 -3 111
-5 155 -5z m-1590 -81 c22 -1 64 2 93 6 61 9 94 -3 111 -42 26 -57 -79 -97
-153 -58 -15 8 -38 15 -50 15 -27 -1 -97 -32 -119 -54 -22 -22 -22 -77 -1
-122 13 -27 22 -34 46 -34 45 0 104 35 135 82 47 70 117 78 149 16 22 -42 8
-68 -47 -95 -24 -11 -75 -35 -114 -54 l-70 -34 -3 -47 c-4 -59 14 -94 81 -159
75 -73 149 -119 250 -155 124 -45 147 -71 111 -122 -49 -70 -218 19 -409 215
-51 52 -98 94 -105 91 -6 -2 -29 -47 -50 -101 -45 -116 -86 -181 -145 -236
-46 -43 -85 -52 -126 -31 -41 22 -24 57 81 160 54 54 102 110 106 124 8 33 -1
56 -22 56 -10 0 -87 -46 -173 -102 -172 -112 -228 -140 -313 -159 -50 -10 -60
-10 -82 5 -15 9 -26 26 -26 37 0 30 42 66 91 79 145 36 349 130 439 201 57 45
96 93 105 131 12 48 -18 45 -92 -10 -231 -170 -404 -247 -458 -202 -42 35 10
89 118 121 127 38 264 117 340 197 42 43 46 75 10 80 -16 2 -49 -17 -105 -61
-141 -109 -254 -152 -298 -112 -41 37 -12 82 62 95 116 22 253 98 253 140 0
18 -9 26 -41 38 -39 14 -44 14 -86 -6 -58 -29 -82 -28 -107 4 -27 34 -26 50 4
79 29 30 83 33 126 8 28 -16 31 -16 62 0 47 24 100 26 422 16z m1814 -287 c49
-11 63 -38 32 -63 -21 -18 -41 -19 -257 -19 -206 0 -235 -2 -241 -16 -8 -21
10 -31 72 -39 27 -4 62 -14 77 -23 24 -14 29 -14 61 1 74 35 148 8 167 -62 15
-58 29 -176 30 -254 0 -83 -18 -119 -73 -146 -36 -18 -58 -19 -375 -14 -273 4
-345 8 -380 21 -40 14 -47 14 -75 0 -18 -9 -53 -19 -79 -22 -60 -7 -107 22
-126 79 -20 59 -10 258 16 316 36 82 79 99 244 99 84 0 110 3 123 16 27 28 1
41 -93 48 -121 9 -146 9 -237 -3 -93 -13 -120 -9 -136 20 -9 18 -7 25 9 42 17
17 33 20 109 20 48 0 95 -1 103 -2 8 -1 42 3 75 8 69 11 902 6 954 -7z"/>
<path d="M2535 2533 c-17 -9 -67 -19 -118 -22 -78 -6 -91 -9 -108 -31 -16 -20
-19 -37 -16 -89 3 -58 6 -67 36 -92 18 -15 53 -32 76 -38 57 -14 233 -14 274
0 81 28 89 194 10 229 -7 3 -38 18 -67 33 -28 15 -53 27 -55 27 -1 -1 -15 -8
-32 -17z"/>
<path d="M1888 2515 c-3 -4 -48 -7 -99 -8 l-93 -2 -19 -90 c-23 -110 -15 -138
40 -162 33 -14 58 -14 191 -5 128 9 159 15 195 34 60 33 84 81 71 143 -14 75
-41 89 -172 93 -59 2 -110 1 -114 -3z"/>
<path d="M908 2339 c-57 -30 -82 -85 -76 -170 6 -83 33 -138 79 -162 69 -37
154 1 180 81 24 73 -2 192 -54 250 -26 28 -78 29 -129 1z"/>
<path d="M1702 1398 c-7 -7 -12 -20 -12 -30 0 -14 8 -18 35 -18 63 0 112 38
69 54 -26 10 -79 7 -92 -6z"/>
<path d="M1755 1273 c-16 -3 -37 -11 -46 -19 -20 -18 -31 -91 -18 -116 19 -36
169 -17 169 21 0 5 -27 11 -59 13 -33 2 -67 10 -75 18 -15 12 -15 14 0 31 13
14 31 19 75 19 66 0 89 7 89 26 0 14 -63 17 -135 7z"/>
<path d="M2462 1153 c-30 -11 -42 -20 -40 -31 4 -20 65 -62 90 -62 24 0 98 49
98 65 0 10 -90 49 -102 44 -2 -1 -22 -8 -46 -16z"/>
<path d="M2133 754 c-13 -36 55 -57 92 -30 16 12 17 16 6 30 -18 22 -89 22
-98 0z"/>
<path d="M2490 640 c-8 -5 -39 -10 -67 -10 -58 0 -64 -7 -32 -36 29 -26 188
-34 208 -10 19 23 7 42 -31 49 -18 3 -40 8 -48 11 -8 3 -22 1 -30 -4z"/>
<path d="M1778 614 c-61 -32 -21 -48 111 -43 70 3 94 8 108 22 16 15 16 19 3
27 -25 16 -191 11 -222 -6z"/>
<path d="M2126 602 c-10 -31 -69 -80 -111 -92 -22 -6 -90 -15 -152 -19 -135
-8 -153 -19 -153 -90 0 -25 4 -52 9 -60 11 -16 108 -35 166 -31 22 1 191 3
375 4 184 1 343 3 353 4 35 4 57 39 57 92 0 46 -3 52 -31 69 -22 14 -60 21
-128 26 -151 10 -189 21 -240 71 -39 40 -48 44 -92 44 -37 0 -49 -4 -53 -18z
m-51 -153 c22 1 131 4 242 7 217 5 243 1 243 -40 0 -47 -13 -49 -288 -46 -141
1 -285 -1 -320 -5 -53 -6 -66 -5 -82 10 -41 37 -16 64 68 75 31 4 66 5 77 2
11 -3 38 -4 60 -3z"/>
</g>
</svg>
